<svg width="240" height="66" viewBox="0 0 240 66" fill="none" xmlns="http://www.w3.org/2000/svg">
<path d="M52.9982 46.665C52.9982 46.665 52.9921 46.6711 52.9921 46.6771C52.7152 47.0744 52.4322 47.4718 52.1372 47.8571C46.3275 55.4971 36.9295 60.7951 27.0981 60.4338C15.5689 60.0124 4.83443 51.8547 0 39.6873C6.25526 50.6205 16.9055 57.4838 27.8146 57.0744C44.2564 56.4543 54.2263 39.5669 53.7206 38.9709C53.54 38.7602 52.065 40.5242 49.5484 42.535L49.5304 42.5531C47.6941 44.022 45.316 45.6175 42.4925 46.659H42.4864C40.6863 47.3393 38.7056 47.7909 36.5683 47.845C36.0024 47.8571 35.4244 47.845 34.8284 47.8029C30.5358 47.5199 25.5328 45.8222 21.3727 42.83C16.6526 39.4405 13.0162 34.3833 12.7092 27.815C12.2276 17.6464 19.8495 9.7656 28.5972 6.97211C30.7044 6.29781 32.8778 5.91852 35.015 5.87638C48.1999 5.59944 56.8212 18.7241 57.9169 29.019C58.5731 35.2081 56.6225 41.4212 52.9982 46.665Z" fill="#7BA5DB"/>
<path d="M27.6214 65.1778C33.5817 64.2145 42.1488 61.3788 48.6208 53.2994C50.0416 51.5233 52.0585 48.5131 52.9917 46.6769C52.9917 46.6708 52.9977 46.6708 52.9977 46.6648C56.622 41.421 58.5726 35.2079 57.9164 29.0188C56.8207 18.7238 48.1994 5.59922 35.0146 5.87617C32.8773 5.91831 30.7039 6.2976 28.5967 6.97189C19.1807 8.82619 10.8725 16.9659 11.2096 26.7672C11.4324 33.2753 15.43 39.3439 21.3722 42.8298C25.5323 45.822 30.5353 47.5197 34.8279 47.8027C34.4968 48.0315 34.1536 48.2422 33.8105 48.4409C25.0687 53.4559 15.2253 47.9291 14.7196 47.6341C16.4535 49.0248 21.023 52.294 27.489 52.4866C34.0874 52.6853 39.1928 49.5667 42.486 46.6648H42.492C45.3156 45.6173 47.6937 44.0218 49.5299 42.5528C45.0266 49.7292 37.1037 54.9731 28.0368 54.8647C13.5335 54.7021 3.11813 40.6383 3.22047 27.1706C3.34088 11.4451 17.9345 -0.0539935 32.209 0.000190685C48.9399 0.0664158 60.3065 16.0086 61.2698 29.958C62.4318 46.8033 47.8141 63.763 27.6214 65.1778Z" fill="#AAE9FF"/>
<path d="M49.741 42.2158C49.6748 42.3302 49.6025 42.4446 49.5303 42.553" stroke="#231F20" stroke-miterlimit="10"/>
<g filter="url(#filter0_d_1009_2004)">
<path d="M50.2409 17.3395C46.9417 14.0343 42.3842 11.9873 37.3752 11.9873C32.3661 11.9873 27.8147 14.0343 24.5094 17.3395C21.2042 20.6447 19.1572 25.1962 19.1572 30.2052C19.1572 40.2293 27.3571 48.4232 37.3752 48.4232C42.3842 48.4232 46.9417 46.3762 50.2409 43.071C53.5461 39.7718 55.5931 35.2143 55.5931 30.2052C55.5931 25.1962 53.5461 20.6447 50.2409 17.3395ZM43.0525 35.8825C41.5955 37.3395 39.5907 38.2426 37.3752 38.2426C32.9561 38.2426 29.3378 34.6303 29.3378 30.2052C29.3378 27.9957 30.2409 25.9849 31.6979 24.5279C33.1548 23.071 35.1656 22.1679 37.3752 22.1679C39.5847 22.1679 41.5955 23.071 43.0525 24.5279C44.5094 25.9849 45.4125 27.9957 45.4125 30.2052C45.4125 32.4147 44.5094 34.4256 43.0525 35.8825Z" fill="#3E67C9"/>
</g>
<path d="M40.8308 22.9563C40.8007 23.5403 40.7104 24.1123 40.5539 24.6661C40.4455 25.0575 40.301 25.4428 40.1324 25.816C39.6087 26.978 38.8079 28.0135 37.7784 28.8082C37.5677 28.9828 37.345 29.1393 37.1102 29.2838C34.7562 30.7468 31.8182 30.8492 29.3799 29.639C29.5184 27.6583 30.3853 25.8702 31.7158 24.5397C33.0825 23.1731 34.9368 22.2941 36.9777 22.1917H36.9837C37.1222 22.1857 37.2547 22.1797 37.3931 22.1797C38.6213 22.1797 39.7893 22.4566 40.8308 22.9563Z" fill="#9DD5E9"/>
<path d="M45.4303 30.2167C45.4303 32.4323 44.5272 34.4371 43.0703 35.894C42.992 35.9723 42.9077 36.0506 42.8294 36.1228C43.8168 32.1312 43.3833 28.0855 41.0052 25.1776C40.8608 25.003 40.7102 24.8284 40.5537 24.6659C40.7102 24.112 40.8005 23.54 40.8307 22.9561C41.6615 23.3534 42.4201 23.8892 43.0703 24.5394C44.5272 25.9964 45.4303 28.0072 45.4303 30.2167Z" fill="white"/>
<path d="M42.8295 36.123C41.7578 37.1103 40.4273 37.8087 38.9463 38.1037C39.3316 37.7124 39.6808 37.2909 39.9878 36.8394C42.1793 33.6305 42.2154 29.2958 40.1323 25.8159C40.3009 25.4427 40.4454 25.0573 40.5538 24.666C40.7103 24.8286 40.8608 25.0032 41.0053 25.1778C43.3834 28.0856 43.8168 32.1314 42.8295 36.123Z" fill="#9DD5E9"/>
<path d="M39.9874 36.8399C39.6804 37.2914 39.3312 37.7128 38.9459 38.1042C38.4462 38.2005 37.9224 38.2547 37.3926 38.2547C35.9357 38.2547 34.557 37.8634 33.377 37.165C36.05 35.413 37.6996 32.2523 37.7779 28.8086C38.8074 28.0139 39.6081 26.9784 40.1319 25.8164C42.215 29.2962 42.1789 33.631 39.9874 36.8399Z" fill="#688BB7"/>
<path d="M37.7781 28.8076C37.6998 32.2513 36.0502 35.4121 33.3771 37.164C30.981 35.7793 29.3555 33.1785 29.3555 30.2164C29.3555 30.0238 29.3615 29.8311 29.3796 29.6384C31.8178 30.8486 34.7558 30.7462 37.1098 29.2832C37.3446 29.1387 37.5674 28.9822 37.7781 28.8076Z" fill="#627D9B"/>
<g filter="url(#filter1_d_1009_2004)">
<path d="M104.263 31.8371V47.5445H97.7246V32.2224C97.7246 31.7468 97.526 31.3133 97.2129 30.9942C96.8998 30.6811 96.4664 30.4885 95.9847 30.4885C95.0275 30.4885 94.2508 31.2651 94.2508 32.2224V47.5445H87.833V31.8371C87.833 27.3157 91.5296 23.6191 96.0449 23.6191C98.3086 23.6191 100.362 24.5463 101.849 26.0333C103.342 27.5204 104.263 29.5794 104.263 31.8371Z" fill="#3E67C9"/>
</g>
<g filter="url(#filter2_d_1009_2004)">
<path d="M175.678 31.8371V47.5445H169.146V32.2224C169.146 31.7468 168.953 31.3133 168.634 30.9942C168.321 30.6811 167.881 30.4885 167.406 30.4885C166.449 30.4885 165.666 31.2651 165.666 32.2224V35.5818H167.466V41.9996H165.666V47.5445H159.248V31.8371C159.248 27.3157 162.945 23.6191 167.466 23.6191C169.724 23.6191 171.777 24.5463 173.264 26.0333C174.757 27.5204 175.678 29.5794 175.678 31.8371Z" fill="#3E67C9"/>
</g>
<g filter="url(#filter3_d_1009_2004)">
<path d="M196.431 31.8371V47.5445H189.898V32.2224C189.898 31.7468 189.7 31.3133 189.387 30.9942C189.074 30.6811 188.64 30.4885 188.159 30.4885C187.201 30.4885 186.419 31.2651 186.419 32.2224V47.5445H180.007V31.8371C180.007 27.3157 183.703 23.6191 188.219 23.6191C190.476 23.6191 192.529 24.5463 194.016 26.0333C195.504 27.5204 196.431 29.5794 196.431 31.8371Z" fill="#3E67C9"/>
</g>
<g filter="url(#filter4_d_1009_2004)">
<path d="M84.0946 30.4102V47.5445H77.5804V31.9214C77.5804 31.53 77.4179 31.1688 77.159 30.9099C76.9001 30.651 76.5389 30.4885 76.1475 30.4885C75.3528 30.4885 74.7087 31.1327 74.7087 31.9214V47.5445H68.1704V31.9214C68.1704 31.53 68.0079 31.1688 67.749 30.9099C67.4841 30.651 67.1229 30.4885 66.7315 30.4885C65.9429 30.4885 65.2926 31.1327 65.2926 31.9214V47.5445H58.8447V30.4102C58.8447 26.6775 61.9031 23.6191 65.6358 23.6191C67.5022 23.6191 69.1999 24.3837 70.4341 25.6179C70.8375 26.0213 71.1867 26.4728 71.4757 26.9605C72.6497 24.9617 74.8291 23.6191 77.3035 23.6191C79.1698 23.6191 80.8676 24.3837 82.1018 25.6179C83.336 26.8521 84.0946 28.5439 84.0946 30.4102Z" fill="#3E67C9"/>
</g>
<g filter="url(#filter5_d_1009_2004)">
<path d="M115.509 23.6191H108.977V47.5445H115.509V23.6191Z" fill="#3E67C9"/>
</g>
<g filter="url(#filter6_d_1009_2004)">
<path d="M156.9 47.5445H149.646L146.858 41.2471V34.5041C148.971 34.5041 149.555 32.7943 149.14 31.7468C148.719 30.6932 147.099 30.7414 147.099 30.7414H144.745V47.5445H138.213V23.6191H144.745C154.149 23.6191 155.552 28.9111 155.552 32.0117C155.552 35.1122 152.554 37.412 152.554 37.412L156.9 47.5445Z" fill="#3E67C9"/>
</g>
<g filter="url(#filter7_d_1009_2004)">
<path d="M135.593 23.6191V30.7414H130.373V47.5445H123.835V30.7414H118.609V23.6191H135.593Z" fill="#3E67C9"/>
</g>
<g filter="url(#filter8_d_1009_2004)">
<path d="M215.07 39.9888H222.673C221.253 44.3596 217.135 47.5445 212.3 47.5445H210.675C204.672 47.5445 199.766 42.6318 199.766 36.6294V34.5342C199.766 28.5318 204.672 23.6191 210.675 23.6191H212.3C218.092 23.6191 222.866 28.1947 223.191 33.9081H216.515C215.888 31.9274 214.028 30.4885 211.849 30.4885H211.12C208.435 30.4885 206.232 32.686 206.232 35.3771V36.3163C206.232 39.0075 208.435 41.2109 211.12 41.2109H211.849C213.077 41.2109 214.209 40.7474 215.07 39.9888Z" fill="#3E67C9"/>
</g>
<g filter="url(#filter9_d_1009_2004)">
<path d="M233.95 31.1327C233.679 31.4036 233.51 31.7769 233.51 32.1863C233.51 33.005 234.179 33.6793 234.997 33.6793H240V38.2188H234.997C234.588 38.2188 234.215 38.3873 233.95 38.6583C233.679 38.9292 233.51 39.3025 233.51 39.7118C233.51 40.5306 234.179 41.2049 234.997 41.2049H240V47.5445H233.986C229.958 47.5445 226.665 44.2513 226.665 40.2236V30.94C226.665 26.9123 229.958 23.6191 233.986 23.6191H240V30.6932H234.997C234.588 30.6932 234.215 30.8618 233.95 31.1327Z" fill="#3E67C9"/>
</g>
<defs>
<filter id="filter0_d_1009_2004" x="19.1572" y="11.9873" width="36.4355" height="38.4355" filterUnits="userSpaceOnUse" color-interpolation-filters="sRGB">
<feFlood flood-opacity="0" result="BackgroundImageFix"/>
<feColorMatrix in="SourceAlpha" type="matrix" values="0 0 0 0 0 0 0 0 0 0 0 0 0 0 0 0 0 0 127 0" result="hardAlpha"/>
<feOffset dy="2"/>
<feColorMatrix type="matrix" values="0 0 0 0 0.137255 0 0 0 0 0.121569 0 0 0 0 0.12549 0 0 0 1 0"/>
<feBlend mode="normal" in2="BackgroundImageFix" result="effect1_dropShadow_1009_2004"/>
<feBlend mode="normal" in="SourceGraphic" in2="effect1_dropShadow_1009_2004" result="shape"/>
</filter>
<filter id="filter1_d_1009_2004" x="87.833" y="23.6191" width="16.4297" height="25.9258" filterUnits="userSpaceOnUse" color-interpolation-filters="sRGB">
<feFlood flood-opacity="0" result="BackgroundImageFix"/>
<feColorMatrix in="SourceAlpha" type="matrix" values="0 0 0 0 0 0 0 0 0 0 0 0 0 0 0 0 0 0 127 0" result="hardAlpha"/>
<feOffset dy="2"/>
<feColorMatrix type="matrix" values="0 0 0 0 0.137255 0 0 0 0 0.121569 0 0 0 0 0.12549 0 0 0 1 0"/>
<feBlend mode="normal" in2="BackgroundImageFix" result="effect1_dropShadow_1009_2004"/>
<feBlend mode="normal" in="SourceGraphic" in2="effect1_dropShadow_1009_2004" result="shape"/>
</filter>
<filter id="filter2_d_1009_2004" x="159.248" y="23.6191" width="16.4297" height="25.9258" filterUnits="userSpaceOnUse" color-interpolation-filters="sRGB">
<feFlood flood-opacity="0" result="BackgroundImageFix"/>
<feColorMatrix in="SourceAlpha" type="matrix" values="0 0 0 0 0 0 0 0 0 0 0 0 0 0 0 0 0 0 127 0" result="hardAlpha"/>
<feOffset dy="2"/>
<feColorMatrix type="matrix" values="0 0 0 0 0.137255 0 0 0 0 0.121569 0 0 0 0 0.12549 0 0 0 1 0"/>
<feBlend mode="normal" in2="BackgroundImageFix" result="effect1_dropShadow_1009_2004"/>
<feBlend mode="normal" in="SourceGraphic" in2="effect1_dropShadow_1009_2004" result="shape"/>
</filter>
<filter id="filter3_d_1009_2004" x="180.007" y="23.6191" width="16.4238" height="25.9258" filterUnits="userSpaceOnUse" color-interpolation-filters="sRGB">
<feFlood flood-opacity="0" result="BackgroundImageFix"/>
<feColorMatrix in="SourceAlpha" type="matrix" values="0 0 0 0 0 0 0 0 0 0 0 0 0 0 0 0 0 0 127 0" result="hardAlpha"/>
<feOffset dy="2"/>
<feColorMatrix type="matrix" values="0 0 0 0 0.137255 0 0 0 0 0.121569 0 0 0 0 0.12549 0 0 0 1 0"/>
<feBlend mode="normal" in2="BackgroundImageFix" result="effect1_dropShadow_1009_2004"/>
<feBlend mode="normal" in="SourceGraphic" in2="effect1_dropShadow_1009_2004" result="shape"/>
</filter>
<filter id="filter4_d_1009_2004" x="58.8447" y="23.6191" width="25.25" height="25.9258" filterUnits="userSpaceOnUse" color-interpolation-filters="sRGB">
<feFlood flood-opacity="0" result="BackgroundImageFix"/>
<feColorMatrix in="SourceAlpha" type="matrix" values="0 0 0 0 0 0 0 0 0 0 0 0 0 0 0 0 0 0 127 0" result="hardAlpha"/>
<feOffset dy="2"/>
<feColorMatrix type="matrix" values="0 0 0 0 0.137255 0 0 0 0 0.121569 0 0 0 0 0.12549 0 0 0 1 0"/>
<feBlend mode="normal" in2="BackgroundImageFix" result="effect1_dropShadow_1009_2004"/>
<feBlend mode="normal" in="SourceGraphic" in2="effect1_dropShadow_1009_2004" result="shape"/>
</filter>
<filter id="filter5_d_1009_2004" x="108.977" y="23.6191" width="6.53223" height="25.9258" filterUnits="userSpaceOnUse" color-interpolation-filters="sRGB">
<feFlood flood-opacity="0" result="BackgroundImageFix"/>
<feColorMatrix in="SourceAlpha" type="matrix" values="0 0 0 0 0 0 0 0 0 0 0 0 0 0 0 0 0 0 127 0" result="hardAlpha"/>
<feOffset dy="2"/>
<feColorMatrix type="matrix" values="0 0 0 0 0.137255 0 0 0 0 0.121569 0 0 0 0 0.12549 0 0 0 1 0"/>
<feBlend mode="normal" in2="BackgroundImageFix" result="effect1_dropShadow_1009_2004"/>
<feBlend mode="normal" in="SourceGraphic" in2="effect1_dropShadow_1009_2004" result="shape"/>
</filter>
<filter id="filter6_d_1009_2004" x="138.213" y="23.6191" width="18.6875" height="25.9258" filterUnits="userSpaceOnUse" color-interpolation-filters="sRGB">
<feFlood flood-opacity="0" result="BackgroundImageFix"/>
<feColorMatrix in="SourceAlpha" type="matrix" values="0 0 0 0 0 0 0 0 0 0 0 0 0 0 0 0 0 0 127 0" result="hardAlpha"/>
<feOffset dy="2"/>
<feColorMatrix type="matrix" values="0 0 0 0 0.137255 0 0 0 0 0.121569 0 0 0 0 0.12549 0 0 0 1 0"/>
<feBlend mode="normal" in2="BackgroundImageFix" result="effect1_dropShadow_1009_2004"/>
<feBlend mode="normal" in="SourceGraphic" in2="effect1_dropShadow_1009_2004" result="shape"/>
</filter>
<filter id="filter7_d_1009_2004" x="118.609" y="23.6191" width="16.9834" height="25.9258" filterUnits="userSpaceOnUse" color-interpolation-filters="sRGB">
<feFlood flood-opacity="0" result="BackgroundImageFix"/>
<feColorMatrix in="SourceAlpha" type="matrix" values="0 0 0 0 0 0 0 0 0 0 0 0 0 0 0 0 0 0 127 0" result="hardAlpha"/>
<feOffset dy="2"/>
<feColorMatrix type="matrix" values="0 0 0 0 0.137255 0 0 0 0 0.121569 0 0 0 0 0.12549 0 0 0 1 0"/>
<feBlend mode="normal" in2="BackgroundImageFix" result="effect1_dropShadow_1009_2004"/>
<feBlend mode="normal" in="SourceGraphic" in2="effect1_dropShadow_1009_2004" result="shape"/>
</filter>
<filter id="filter8_d_1009_2004" x="199.766" y="23.6191" width="23.4258" height="25.9258" filterUnits="userSpaceOnUse" color-interpolation-filters="sRGB">
<feFlood flood-opacity="0" result="BackgroundImageFix"/>
<feColorMatrix in="SourceAlpha" type="matrix" values="0 0 0 0 0 0 0 0 0 0 0 0 0 0 0 0 0 0 127 0" result="hardAlpha"/>
<feOffset dy="2"/>
<feColorMatrix type="matrix" values="0 0 0 0 0.137255 0 0 0 0 0.121569 0 0 0 0 0.12549 0 0 0 1 0"/>
<feBlend mode="normal" in2="BackgroundImageFix" result="effect1_dropShadow_1009_2004"/>
<feBlend mode="normal" in="SourceGraphic" in2="effect1_dropShadow_1009_2004" result="shape"/>
</filter>
<filter id="filter9_d_1009_2004" x="226.665" y="23.6191" width="13.335" height="25.9258" filterUnits="userSpaceOnUse" color-interpolation-filters="sRGB">
<feFlood flood-opacity="0" result="BackgroundImageFix"/>
<feColorMatrix in="SourceAlpha" type="matrix" values="0 0 0 0 0 0 0 0 0 0 0 0 0 0 0 0 0 0 127 0" result="hardAlpha"/>
<feOffset dy="2"/>
<feColorMatrix type="matrix" values="0 0 0 0 0.137255 0 0 0 0 0.121569 0 0 0 0 0.12549 0 0 0 1 0"/>
<feBlend mode="normal" in2="BackgroundImageFix" result="effect1_dropShadow_1009_2004"/>
<feBlend mode="normal" in="SourceGraphic" in2="effect1_dropShadow_1009_2004" result="shape"/>
</filter>
</defs>
</svg>
